<svg version="1.1" viewBox="0.0 0.0 420.48556430446195 134.3228346456693" fill="none" stroke="none" stroke-linecap="square" stroke-miterlimit="10" xmlns:xlink="http://www.w3.org/1999/xlink" xmlns="http://www.w3.org/2000/svg"><clipPath id="p.0"><path d="m0 0l420.48557 0l0 134.32283l-420.48557 0l0 -134.32283z" clip-rule="nonzero"/></clipPath><g clip-path="url(#p.0)"><path fill="#000000" fill-opacity="0.0" d="m0 0l420.48557 0l0 134.32283l-420.48557 0z" fill-rule="evenodd"/><path fill="#ff9c69" d="m96.17484 43.810543l0 0c0 -0.4928627 0.39954376 -0.89240646 0.89240265 -0.89240646l312.19946 0c0.23666382 0 0.46365356 0.09402084 0.63101196 0.26137924c0.1673584 0.16736221 0.26138306 0.39434814 0.26138306 0.6310272l0 3.569519c0 0.4928627 -0.39953613 0.89240646 -0.892395 0.89240646l-312.19946 0c-0.4928589 0 -0.89240265 -0.39954376 -0.89240265 -0.89240646z" fill-rule="evenodd"/><path fill="#666666" d="m345.54492 18.678679l0 0c0 -4.0965557 3.3208923 -7.417471 7.41745 -7.417471l34.771362 0c1.9672546 0 3.8539124 0.78148174 5.2449646 2.1725273c1.3910217 1.3910456 2.1725159 3.277708 2.1725159 5.2449436l0 29.668997c0 4.096554 -3.3209229 7.417469 -7.4174805 7.417469l-34.771362 0c-4.0965576 0 -7.41745 -3.3209152 -7.41745 -7.417469z" fill-rule="evenodd"/><path stroke="#666666" stroke-width="1.0" stroke-linejoin="round" stroke-linecap="butt" d="m345.54492 18.678679l0 0c0 -4.0965557 3.3208923 -7.417471 7.41745 -7.417471l34.771362 0c1.9672546 0 3.8539124 0.78148174 5.2449646 2.1725273c1.3910217 1.3910456 2.1725159 3.277708 2.1725159 5.2449436l0 29.668997c0 4.096554 -3.3209229 7.417469 -7.4174805 7.417469l-34.771362 0c-4.0965576 0 -7.41745 -3.3209152 -7.41745 -7.417469z" fill-rule="evenodd"/><path fill="#000000" fill-opacity="0.0" d="m337.3309 8.282482l69.29135 0l0 50.866142l-69.29135 0z" fill-rule="evenodd"/><path fill="#ffffff" d="m368.03842 28.125553q0 1.078125 -0.359375 1.953125q-0.34375 0.859375 -0.953125 1.515625q-0.609375 0.65625 -1.4375 1.09375q-0.8125 0.4375 -1.78125 0.65625l0 0.09375q2.546875 0.3125 3.84375 1.546875q1.296875 1.21875 1.296875 3.296875q0 1.375 -0.5 2.546875q-0.484375 1.15625 -1.515625 2.015625q-1.015625 0.859375 -2.578125 1.34375q-1.546875 0.46875 -3.640625 0.46875q-1.703125 0 -3.1875 -0.28125q-1.484375 -0.265625 -2.78125 -0.84375l0 -3.765625q0.640625 0.34375 1.359375 0.609375q0.71875 0.25 1.4375 0.4375q0.71875 0.171875 1.40625 0.265625q0.703125 0.078125 1.3125 0.078125q1.234375 0 2.046875 -0.234375q0.8125 -0.234375 1.296875 -0.640625q0.5 -0.421875 0.703125 -1.0q0.203125 -0.578125 0.203125 -1.265625q0 -0.640625 -0.265625 -1.15625q-0.265625 -0.53125 -0.859375 -0.890625q-0.59375 -0.375 -1.546875 -0.5625q-0.953125 -0.203125 -2.359375 -0.203125l-1.5 0l0 -3.109375l1.46875 0q1.3125 0 2.1875 -0.234375q0.875 -0.25 1.390625 -0.65625q0.53125 -0.40625 0.734375 -0.953125q0.21875 -0.546875 0.21875 -1.15625q0 -1.109375 -0.703125 -1.734375q-0.6875 -0.640625 -2.1875 -0.640625q-0.6875 0 -1.28125 0.140625q-0.59375 0.125 -1.109375 0.34375q-0.5 0.203125 -0.921875 0.453125q-0.421875 0.25 -0.765625 0.5l-2.234375 -2.953125q0.609375 -0.453125 1.3125 -0.8125q0.703125 -0.375 1.53125 -0.65625q0.84375 -0.28125 1.796875 -0.4375q0.953125 -0.15625 2.046875 -0.15625q1.546875 0 2.8125 0.34375q1.265625 0.328125 2.171875 0.96875q0.90625 0.625 1.390625 1.5625q0.5 0.921875 0.5 2.109375zm20.575256 5.578125q0 2.65625 -0.71875 4.65625q-0.71875 1.984375 -2.09375 3.328125q-1.359375 1.34375 -3.34375 2.015625q-1.984375 0.671875 -4.53125 0.671875l-5.5 0l0 -20.9375l6.125 0q2.296875 0 4.15625 0.65625q1.859375 0.65625 3.171875 1.953125q1.3125 1.296875 2.015625 3.21875q0.71875 1.921875 0.71875 4.4375zm-4.5 0.125q0 -1.75 -0.34375 -3.015625q-0.34375 -1.265625 -1.015625 -2.09375q-0.671875 -0.84375 -1.640625 -1.234375q-0.953125 -0.40625 -2.203125 -0.40625l-2.046875 0l0 13.625l1.625 0q2.8125 0 4.21875 -1.71875q1.40625 -1.71875 1.40625 -5.15625z" fill-rule="nonzero"/><path fill="#000000" fill-opacity="0.0" d="m-3.2391658 8.001222l359.59055 0l0 159.11812l-359.59055 0z" fill-rule="evenodd"/><path fill="#666666" d="m36.130524 65.63464q-6.078125 0 -6.078125 6.5625l0 3.25l10.875 0l0 5.59375l-10.734375 0l0 31.859375l-6.78125 0l0 -31.859375l-6.359375 0l0 -5.59375l6.359375 0l0 -3.3125q0 -5.578125 3.25 -8.828125q3.25 -3.25 9.109375 -3.25q2.265625 0 4.234375 0.5625q1.984375 0.5625 3.40625 1.625l-2.0625 5.15625q-2.328125 -1.765625 -5.21875 -1.765625zm26.704468 47.6875q-5.578125 0 -10.03125 -2.46875q-4.453125 -2.46875 -6.96875 -6.8125q-2.5 -4.359375 -2.5 -9.859375q0 -5.515625 2.5 -9.859375q2.515625 -4.34375 6.96875 -6.78125q4.453125 -2.4375 10.03125 -2.4375q5.578125 0 9.984375 2.4375q4.421875 2.4375 6.9375 6.78125q2.515625 4.34375 2.515625 9.859375q0 5.5 -2.515625 9.859375q-2.515625 4.34375 -6.9375 6.8125q-4.40625 2.46875 -9.984375 2.46875zm0 -5.9375q3.609375 0 6.46875 -1.65625q2.859375 -1.65625 4.484375 -4.65625q1.625 -3.015625 1.625 -6.890625q0 -3.890625 -1.625 -6.890625q-1.625 -3.0 -4.484375 -4.625q-2.859375 -1.625 -6.46875 -1.625q-3.609375 0 -6.46875 1.625q-2.859375 1.625 -4.515625 4.625q-1.65625 3.0 -1.65625 6.890625q0 3.875 1.65625 6.890625q1.65625 3.0 4.515625 4.65625q2.859375 1.65625 6.46875 1.65625zm35.335495 -25.640625q1.765625 -3.25 5.21875 -4.9375q3.46875 -1.703125 8.40625 -1.703125l0 6.5625q-0.5625 -0.0625 -1.546875 -0.0625q-5.515625 0 -8.65625 3.28125q-3.140625 3.28125 -3.140625 9.359375l0 18.65625l-6.78125 0l0 -37.453125l6.5 0l0 6.296875zm56.949203 -21.265625l0 52.421875l-6.515625 0l0 -5.9375q-2.25 3.109375 -5.71875 4.734375q-3.453125 1.625 -7.625 1.625q-5.4375 0 -9.75 -2.390625q-4.3125 -2.40625 -6.75 -6.75q-2.4375 -4.359375 -2.4375 -10.0q0 -5.65625 2.4375 -9.96875q2.4375 -4.3125 6.75 -6.703125q4.3125 -2.40625 9.75 -2.40625q4.03125 0 7.421875 1.515625q3.390625 1.515625 5.640625 4.484375l0 -20.625l6.796875 0zm-19.296875 46.90625q3.53125 0 6.421875 -1.65625q2.90625 -1.65625 4.53125 -4.65625q1.625 -3.015625 1.625 -6.890625q0 -3.890625 -1.625 -6.890625q-1.625 -3.0 -4.53125 -4.625q-2.890625 -1.625 -6.421875 -1.625q-3.609375 0 -6.46875 1.625q-2.859375 1.625 -4.515625 4.625q-1.65625 3.0 -1.65625 6.890625q0 3.875 1.65625 6.890625q1.65625 3.0 4.515625 4.65625q2.859375 1.65625 6.46875 1.65625z" fill-rule="nonzero"/><path fill="#b7b7b7" d="m223.08853 75.72839l-14.0625 37.171875l-4.734375 0l-11.734375 -30.453125l-11.71875 30.453125l-4.734375 0l-14.0 -37.171875l4.8125 0l11.65625 31.59375l11.9375 -31.59375l4.3125 0l11.875 31.59375l11.796875 -31.59375l4.59375 0zm21.687515 37.53125q-5.375 0 -9.6875 -2.4375q-4.296875 -2.4375 -6.78125 -6.75q-2.46875 -4.3125 -2.46875 -9.75q0 -5.4375 2.46875 -9.75q2.484375 -4.3125 6.78125 -6.71875q4.3125 -2.40625 9.6875 -2.40625q5.375 0 9.67186 2.40625q4.3125 2.40625 6.75 6.71875q2.4375 4.3125 2.4375 9.75q0 5.4375 -2.4375 9.75q-2.4375 4.3125 -6.75 6.75q-4.2968597 2.4375 -9.67186 2.4375zm0 -4.453125q3.953125 0 7.09375 -1.796875q3.1562347 -1.8125 4.9218597 -5.125q1.765625 -3.328125 1.765625 -7.5625q0 -4.25 -1.765625 -7.5625q-1.765625 -3.328125 -4.9218597 -5.125q-3.140625 -1.796875 -7.09375 -1.796875q-3.953125 0 -7.109375 1.796875q-3.140625 1.796875 -4.9375 5.125q-1.796875 3.3125 -1.796875 7.5625q0 4.234375 1.796875 7.5625q1.796875 3.3125 4.9375 5.125q3.15625 1.796875 7.109375 1.796875zm33.910873 -25.796875q1.765625 -3.734375 5.265625 -5.640625q3.5 -1.921875 8.65625 -1.921875l0 4.875l-1.203125 -0.0625q-5.859375 0 -9.1875 3.609375q-3.3125 3.59375 -3.3125 10.09375l0 18.9375l-5.015625 0l0 -37.171875l4.796875 0l0 7.28125zm36.736572 11.234375l-8.75 8.0625l0 10.59375l-5.015625 0l0 -52.421875l5.015625 0l0 35.53125l22.1875 -20.28125l6.21875 0l-15.90625 15.203125l17.390625 21.96875l-6.15625 0l-14.984375 -18.65625z" fill-rule="nonzero"/><path fill="#000000" fill-opacity="0.0" d="m342.44257 108.50284c8.364014 3.449913 25.392395 4.561455 26.787384 -4.3779526c1.7589722 -11.27182 -26.488953 -11.153397 -25.75589 -22.538055c0.5652466 -8.778755 18.774323 -2.012947 25.112854 -8.112862c3.2578125 -3.1351624 2.8320312 -8.743752 2.8320312 -13.265095" fill-rule="evenodd"/><path stroke="#b7b7b7" stroke-width="4.0" stroke-linejoin="round" stroke-linecap="butt" d="m342.44257 108.50284c8.364014 3.449913 25.392395 4.561455 26.787384 -4.3779526c1.7589722 -11.27182 -26.488953 -11.153397 -25.75589 -22.538055c0.5652466 -8.778755 18.774323 -2.012947 25.112854 -8.112862c3.2578125 -3.1351624 2.8320312 -8.743752 2.8320312 -13.265095" fill-rule="evenodd"/><path fill="#666666" d="m378.95416 55.20646l-2.7952576 11.181107l-9.464569 0l-2.795288 -11.181107z" fill-rule="evenodd"/><path stroke="#666666" stroke-width="1.0" stroke-linejoin="round" stroke-linecap="butt" d="m378.95416 55.20646l-2.7952576 11.181107l-9.464569 0l-2.795288 -11.181107z" fill-rule="evenodd"/></g></svg>