<svg version="1.1" viewBox="0.0 0.0 512.0 512.0" fill="none" stroke="none" stroke-linecap="square" stroke-miterlimit="10" xmlns:xlink="http://www.w3.org/1999/xlink" xmlns="http://www.w3.org/2000/svg"><clipPath id="p.0"><path d="m0 0l512.0 0l0 512.0l-512.0 0l0 -512.0z" clip-rule="nonzero"/></clipPath><g clip-path="url(#p.0)"><path fill="#000000" fill-opacity="0.0" d="m0 0l512.0 0l0 512.0l-512.0 0z" fill-rule="evenodd"/><path fill="#4675aa" d="m129.47334 63.790054l0 0c0.52445984 35.732742 -28.003586 65.132095 -63.73594 65.68259c-35.732346 0.5504761 -65.15247 -27.956146 -65.72898 -63.688087c-0.57650644 -35.73194 27.908684 -65.17282 63.640194 -65.77535c35.73151 -0.60253024 65.19313 27.86121 65.821686 63.592274l-31.580551 0.5555382c-0.32189178 -18.298588 -15.409775 -32.875443 -33.708595 -32.56687c-18.298824 0.30856705 -32.886658 15.38583 -32.591415 33.684875c0.2952404 18.299034 15.361876 32.89785 33.661125 32.615936c18.299248 -0.28191376 32.909035 -15.3379135 32.64045 -33.63736z" fill-rule="evenodd"/><path stroke="#4675aa" stroke-width="1.0" stroke-linejoin="round" stroke-linecap="butt" d="m129.47334 63.790054l0 0c0.52445984 35.732742 -28.003586 65.132095 -63.73594 65.68259c-35.732346 0.5504761 -65.15247 -27.956146 -65.72898 -63.688087c-0.57650644 -35.73194 27.908684 -65.17282 63.640194 -65.77535c35.73151 -0.60253024 65.19313 27.86121 65.821686 63.592274l-31.580551 0.5555382c-0.32189178 -18.298588 -15.409775 -32.875443 -33.708595 -32.56687c-18.298824 0.30856705 -32.886658 15.38583 -32.591415 33.684875c0.2952404 18.299034 15.361876 32.89785 33.661125 32.615936c18.299248 -0.28191376 32.909035 -15.3379135 32.64045 -33.63736z" fill-rule="evenodd"/><path fill="#f8d35f" d="m503.10468 114.35976l0 0c29.824219 88.06242 -17.215515 183.67747 -105.10181 213.63448c-87.88629 29.957 -183.38449 -17.072418 -213.37344 -105.07869c-29.988937 -88.00629 16.871841 -183.70947 104.701935 -213.83139c87.83008 -30.121933 183.4161 16.728127 213.56964 104.67796l-101.125 34.78759l0 0c-10.953766 -32.137123 -45.75284 -49.282417 -77.7522 -38.30803c-31.999329 10.974396 -49.098206 45.918457 -38.204254 78.076096c10.893921 32.157654 45.66104 49.368286 77.680756 38.45401c32.019714 -10.914261 49.183563 -45.82614 38.349487 -78.004196z" fill-rule="evenodd"/><path stroke="#f8d35f" stroke-width="1.0" stroke-linejoin="round" stroke-linecap="butt" d="m503.10468 114.35976l0 0c29.824219 88.06242 -17.215515 183.67747 -105.10181 213.63448c-87.88629 29.957 -183.38449 -17.072418 -213.37344 -105.07869c-29.988937 -88.00629 16.871841 -183.70947 104.701935 -213.83139c87.83008 -30.121933 183.4161 16.728127 213.56964 104.67796l-101.125 34.78759l0 0c-10.953766 -32.137123 -45.75284 -49.282417 -77.7522 -38.30803c-31.999329 10.974396 -49.098206 45.918457 -38.204254 78.076096c10.893921 32.157654 45.66104 49.368286 77.680756 38.45401c32.019714 -10.914261 49.183563 -45.82614 38.349487 -78.004196z" fill-rule="evenodd"/><path fill="#4675aa" d="m0 99.461945l129.48032 0l0 346.07874l-129.48032 0z" fill-rule="evenodd"/><path stroke="#4675aa" stroke-width="1.0" stroke-linejoin="round" stroke-linecap="butt" d="m0 99.461945l129.48032 0l0 346.07874l-129.48032 0z" fill-rule="evenodd"/><path fill="#4675aa" d="m412.33072 382.51968l0 129.48032l-349.44882 0l0 -129.48032z" fill-rule="evenodd"/><path stroke="#4675aa" stroke-width="1.0" stroke-linejoin="round" stroke-linecap="butt" d="m412.33072 382.51968l0 129.48032l-349.44882 0l0 -129.48032z" fill-rule="evenodd"/><path fill="#4675aa" d="m511.99304 446.30975l0 0c0.52441406 35.732727 -28.003601 65.13208 -63.735962 65.682556c-35.73233 0.5504761 -65.152466 -27.956146 -65.72897 -63.68808c-0.57650757 -35.731934 27.908691 -65.17282 63.640198 -65.77533c35.731506 -0.60253906 65.193115 27.861206 65.821686 63.592255l-31.580536 0.555542c-0.3218994 -18.298584 -15.40979 -32.875427 -33.70862 -32.566864c-18.298828 0.30856323 -32.886658 15.385834 -32.5914 33.684875c0.29522705 18.299042 15.361877 32.897858 33.661133 32.615936c18.299225 -0.2819214 32.909027 -15.337921 32.64044 -33.63736z" fill-rule="evenodd"/><path stroke="#4675aa" stroke-width="1.0" stroke-linejoin="round" stroke-linecap="butt" d="m511.99304 446.30975l0 0c0.52441406 35.732727 -28.003601 65.13208 -63.735962 65.682556c-35.73233 0.5504761 -65.152466 -27.956146 -65.72897 -63.68808c-0.57650757 -35.731934 27.908691 -65.17282 63.640198 -65.77533c35.731506 -0.60253906 65.193115 27.861206 65.821686 63.592255l-31.580536 0.555542c-0.3218994 -18.298584 -15.40979 -32.875427 -33.70862 -32.566864c-18.298828 0.30856323 -32.886658 15.385834 -32.5914 33.684875c0.29522705 18.299042 15.361877 32.897858 33.661133 32.615936c18.299225 -0.2819214 32.909027 -15.337921 32.64044 -33.63736z" fill-rule="evenodd"/><path fill="#4675aa" d="m0 447.2546l0 0c0 -35.755005 28.985155 -64.74017 64.74016 -64.74017l0 0c17.170158 0 33.63707 6.8208313 45.778206 18.961945c12.141136 12.141144 18.961952 28.608063 18.961952 45.77823l0 0c0 35.754974 -28.985153 64.74014 -64.74016 64.74014l0 0c-35.755005 0 -64.74016 -28.985168 -64.74016 -64.74014z" fill-rule="evenodd"/><path stroke="#4675aa" stroke-width="1.0" stroke-linejoin="round" stroke-linecap="butt" d="m0 447.2546l0 0c0 -35.755005 28.985155 -64.74017 64.74016 -64.74017l0 0c17.170158 0 33.63707 6.8208313 45.778206 18.961945c12.141136 12.141144 18.961952 28.608063 18.961952 45.77823l0 0c0 35.754974 -28.985153 64.74014 -64.74016 64.74014l0 0c-35.755005 0 -64.74016 -28.985168 -64.74016 -64.74014z" fill-rule="evenodd"/><path fill="#f8d35f" d="m175.61154 170.26509l106.80316 0l0 215.96849l-106.80316 0z" fill-rule="evenodd"/><path stroke="#f8d35f" stroke-width="1.0" stroke-linejoin="round" stroke-linecap="butt" d="m175.61154 170.26509l106.80316 0l0 215.96849l-106.80316 0z" fill-rule="evenodd"/><path fill="#4675aa" d="m316.68503 382.51968l134.07877 0l0 26.708649l-134.07877 0z" fill-rule="evenodd"/><path stroke="#4675aa" stroke-width="1.0" stroke-linejoin="round" stroke-linecap="butt" d="m316.68503 382.51968l134.07877 0l0 26.708649l-134.07877 0z" fill-rule="evenodd"/><path fill="#4675aa" d="m316.68503 485.29135l134.07877 0l0 26.708649l-134.07877 0z" fill-rule="evenodd"/><path stroke="#4675aa" stroke-width="1.0" stroke-linejoin="round" stroke-linecap="butt" d="m316.68503 485.29135l134.07877 0l0 26.708649l-134.07877 0z" fill-rule="evenodd"/><path fill="#4675aa" d="m129.48032 65.53281l0 134.07874l-26.708664 0l0 -134.07874z" fill-rule="evenodd"/><path stroke="#4675aa" stroke-width="1.0" stroke-linejoin="round" stroke-linecap="butt" d="m129.48032 65.53281l0 134.07874l-26.708664 0l0 -134.07874z" fill-rule="evenodd"/><path fill="#4675aa" d="m26.708662 60.769028l0 134.07874l-26.708662 0l0 -134.07874z" fill-rule="evenodd"/><path stroke="#4675aa" stroke-width="1.0" stroke-linejoin="round" stroke-linecap="butt" d="m26.708662 60.769028l0 134.07874l-26.708662 0l0 -134.07874z" fill-rule="evenodd"/><path fill="#f8d35f" d="m282.6275 381.90222l0 0c9.1552734E-4 26.793701 -11.261078 52.490295 -31.308365 71.436615c-20.047287 18.94632 -47.237656 29.590302 -75.58928 29.590302l0 -101.02362z" fill-rule="evenodd"/><path stroke="#f8d35f" stroke-width="1.0" stroke-linejoin="round" stroke-linecap="butt" d="m282.6275 381.90222l0 0c9.1552734E-4 26.793701 -11.261078 52.490295 -31.308365 71.436615c-20.047287 18.94632 -47.237656 29.590302 -75.58928 29.590302l0 -101.02362z" fill-rule="evenodd"/></g></svg>